<?xml version="1.0" encoding="utf-8"?>
<!-- Generator: Adobe Illustrator 19.0.0, SVG Export Plug-In . SVG Version: 6.00 Build 0)  -->
<svg version="1.1" id="icons" xmlns="http://www.w3.org/2000/svg" xmlns:xlink="http://www.w3.org/1999/xlink" x="0px" y="0px"
	 viewBox="0 0 48 28" style="enable-background:new 0 0 48 28;" xml:space="preserve">
<style type="text/css">
	.st0{fill:#58595B;}
	.st1{fill:#FFFFFF;}
</style>
<g>
	<g>
		<path id="XMLID_16_" class="st0" d="M24,28C11,28,0.6,15.2,0.2,14.6c-0.3-0.4-0.3-0.9,0-1.2C0.6,12.8,11,0,24,0
			s23.4,12.8,23.8,13.4c0.3,0.4,0.3,0.9,0,1.2C47.4,15.2,37,28,24,28z M2.3,14C4.5,16.5,13.5,26,24,26s19.5-9.5,21.7-12
			C43.5,11.5,34.5,2,24,2S4.5,11.5,2.3,14z"/>
	</g>
	<g>
		<circle class="st0" cx="24" cy="14" r="8"/>
	</g>
	<g>
		<path id="XMLID_15_" class="st1" d="M24,19c-2.8,0-5-2.2-5-5c0-0.6,0.4-1,1-1s1,0.4,1,1c0,1.7,1.3,3,3,3c1.7,0,3-1.3,3-3
			s-1.3-3-3-3c-0.6,0-1-0.4-1-1s0.4-1,1-1c2.8,0,5,2.2,5,5S26.8,19,24,19z"/>
	</g>
</g>
</svg>
